<svg version="1" xmlns="http://www.w3.org/2000/svg" width="594.667" height="594.667" viewBox="0 0 446.000000 446.000000"><path d="M71.5 9.9c-4.6 2.8-17 16.7-23.6 26.5-2 3-4.8 8.9-6.3 13.2-1.5 4.4-3.4 9.2-4.1 10.9-3.4 7.4-5.7 17.2-5.5 23.5.4 12.2.7 14.5 2.8 25.8 3.8 20.1 17.8 46 29.8 55.3C79 176.2 96.5 188 98.6 188c.3 0 3.2 1.9 6.5 4.1 4.7 3.3 5.9 4.7 5.9 6.9 0 2-.7 3-3.2 4.1-3 1.3-3.3 1.8-3.2 5.6.1 3.3-.3 4.4-1.8 4.9-1 .3-2.2 1.3-2.7 2.2-1 2 .5 8.2 2 8.2.5 0 .1 1-1.1 2.2-2.3 2.5-2.6 5.1-.7 6.6.6.5 3.9 1.7 7.2 2.7 3.3.9 7.6 2.5 9.5 3.5 7.1 3.6 24.3 9.6 43.5 15 7.3 2.1 21.7 4.9 30 5.9 5 .6 13.3 1.6 18.6 2.2 11.3 1.3 20.7.8 37.9-1.9 6.9-1.1 15.9-2.3 20-2.7 4.1-.3 9.3-.9 11.5-1.4 5.9-1.3 14-2.8 22.5-4.2 12.9-2.1 43.2-13 47.8-17.2 2.7-2.5 2.9-6.3.3-7.9-1.6-1-1.7-1.4-.5-2.5 2.1-2.1 1.7-6-.7-7.6-1.3-.9-1.6-1.7-1-2.2 3-1.8-.6-10.5-4.3-10.5-2.1 0-2.7-7.1-.7-7.7 2-.6 13-5.9 15.6-7.6 1.1-.6 4-3 6.5-5.2 2.5-2.3 7-6 10-8.2 5.7-4.3 15.9-15.2 24.3-25.7 2.6-3.4 5.4-6.9 6.2-7.8 3-3.7 4.5-6.7 8-16.2 5.3-14.9 6.7-21.1 6.6-31 0-18.9-4.1-35-12.1-48.1-1.3-2.2-3.2-5.6-4.3-7.5-6.2-11.1-10.4-18-13.4-21.5-11.9-14.1-12.7-13.6-13.7 8.5-1.2 26.6-3.7 43.5-7.6 51.1-5.5 10.9-20.2 25.8-31.8 32.4-8.9 5-15.8 8.5-20.6 10.1l-3.9 1.4-9.8-9.5c-13.8-13.2-27.3-21.6-45.5-28.1-5.4-1.9-10.1-3.9-10.5-4.5-.3-.6-2.8-1.2-5.5-1.5-2.7-.3-5.2-1.1-5.7-1.9-2.9-5.3-8.5-6-12.9-1.8-2.1 2-3.8 2.7-6.5 2.6-2.1-.1-4.7.4-5.8 1-1.1.6-2.2 1.2-2.5 1.3-.3 0-1.2.3-2 .7-.8.3-4 1.3-7 2.2-3 1-8.6 3.5-12.3 5.6-3.8 2.2-7.2 3.9-7.5 3.9-.4 0-2.7 1.6-5.1 3.5-2.4 1.9-4.7 3.5-5.2 3.5-1.1 0-9.1 7.2-18.4 16.6l-8 8.1-7.5-2.7c-31.4-11.1-44.7-25.5-52.1-56.5-2.6-10.8-3-14-3.3-32.6-.2-11.3-.6-21.1-1-21.8-1-1.6-2.6-1.4-6.1.8zM105 246.3c0 1.2.7 3.5 11.8 40.7 3.3 11.3 6.8 23.1 7.7 26.2 1.4 5.1 2 6 5.7 7.9 11.5 5.9 14.9 5.6 16.9-1.1 2.2-7.3-2.5-22.8-9.2-30.5-2.6-2.9-2.8-3.6-1.9-6.1 2.5-6.5-3.8-22.4-11.6-29.2-4.5-4.1-19.4-10.1-19.4-7.9zm21 22.7c1.1 2.1 2 5.1 2 6.5 0 2.3-.4 2.6-2.7 2.3-2.5-.3-3.1-1.1-5-6.8-3-9-2.9-9.4.7-7.5 1.6.8 3.9 3.3 5 5.5zm4.6 23.9c4 2.4 7.4 8 8.1 13.1.7 4.7-1 5.9-5.3 3.8-2.3-1.1-3.1-2.5-4.4-7.8-.9-3.6-2-7.5-2.4-8.8-.9-2.7 0-2.8 4-.3zM320 254.3l-6.4 2.2-2.8 15c-1.5 8.2-4.1 24-5.8 35-1.6 11-3.2 21.3-3.5 22.8-.4 2.5-.2 2.8 1.8 2.2 1.2-.4 5.4-2.2 9.4-4.1 8.6-4.1 13.4-9.6 19.8-22.9 6.6-13.5 9.9-26 10-37.2 0-7.8-.3-9.6-2.1-12-1.8-2.5-2.8-2.8-8-3-4-.2-8 .4-12.4 2zm12.2 15c1.5 2.8.4 14.7-2.1 22.7-3 9.7-7.8 16.9-13.4 20.4-2.6 1.6-4.9 2.7-5.2 2.4-.8-.8 7.3-44.7 8.5-46.2 1.1-1.1 7.1-2.3 9.3-1.8 1 .3 2.3 1.4 2.9 2.5zM153 290.3c0 16.7-.3 32.5-.6 35-.6 4.5-.6 4.6 3 6.3 1.9 1 3.8 1.5 4.2 1.2.3-.4.8-3.4 1.1-6.7.3-3.6 1-6.1 1.7-6 .6 0 4 1 7.6 2.2l6.5 2.2 2 7.2c1.2 4 2.3 7.5 2.7 7.8.3.3 2 1 3.8 1.5l3.2.9-.6-3.4c-1.3-6.9-24.5-76-25.9-77.1-.1-.1-2.1-.5-4.4-.9l-4.3-.7v30.5zm14.1 7.1c2.2 6 3.8 11 3.6 11.2-.2.2-2.5-.3-5.2-1.2l-4.8-1.7.7-7.5c.3-4.1.6-9.1.7-11.1 0-2 .3-2.9.6-2.1.3.8 2.3 6.4 4.4 12.4zM284.2 263.3c-4.1.8-5.3 1.4-5.7 3.1-1.2 5.8-6.7 73.7-6 74.4.2.2 1.8-.1 3.6-.6l3.4-.8 1.2-12.5c.6-6.8 1.2-13.8 1.3-15.4.2-2.7 1.3 1.6 5.1 20.2l1 5.2 3.2-1.1c1.8-.6 3.5-1.4 3.9-1.7.4-.4-.4-7.3-1.9-15.4l-2.6-14.7 2.5-2.8c3.5-3.7 5.5-8 7.3-15.4 1.7-7.2 1.9-14.6.6-18.1-2.2-5.8-5.5-6.6-16.9-4.4zm8.6 18.2c.4 4.9-2.2 10.3-5.5 11.1-1.3.4-2.6.4-2.9.2-.2-.3-.1-3.7.2-7.6.7-7.4 1.3-8.2 5.9-7.9 1.6.2 2.1 1 2.3 4.2zM184.5 272.2c.4 3.5 2.4 20.7 4.4 38.3l3.6 32 8.3 1.3c4.6.8 8.5 1.2 8.7 1 .2-.2.1-3.3-.3-6.8l-.7-6.4-4.4-.8c-2.5-.4-4.7-1.1-5.1-1.5-.4-.5-1.4-9.1-2.4-19.3-3-32.1-3.9-40.9-4.5-41.8-.3-.5-2.3-1.2-4.5-1.6l-3.9-.7.8 6.3zM250.3 269.2c-1.4 1.7-12.1 52.7-15.6 74-.4 2.6-.2 2.8 3.3 2.8h3.8l1.3-7.8 1.4-7.7 6.9-.8c3.8-.4 7.1-.5 7.3-.3.2.2.9 3.4 1.5 7.1l1.1 6.7 3.5-.6c1.9-.3 3.6-.7 3.8-.8.1-.2-1.7-14.1-4.2-30.8-2.5-16.8-4.8-33.2-5.2-36.5l-.7-6-3.6-.3c-2.1-.2-4 .2-4.6 1zm4.9 34.5c1 5.9 1.7 10.8 1.5 10.9-.2.2-2.2.6-4.6 1l-4.4.7.5-2.9c1.6-8.9 4.2-20.4 4.7-20.4.3 0 1.4 4.8 2.3 10.7zM211.3 277.2c.3 4.6 1.4 21.3 2.2 37.3.9 15.9 1.8 29.6 2 30.2.3.9 2.9 1.3 8.5 1.3h8v-12.7l-4.9-.7-4.8-.6-.6-11.3c-.4-6.1-.9-18-1.2-26.2-.3-8.3-.8-17.4-1.1-20.3l-.5-5.2h-8.2l.6 8.2zM163.2 389.7l.3 43.8 6.5 1.1c8.3 1.4 11.7.2 14.7-5.2 5.5-10 5.1-31.3-.8-38.8-2.1-2.7-2.1-2.8-.3-6.9 1.4-3 1.9-6.5 1.9-12.7 0-9.5-2-16.2-6-20-2-1.9-11.3-4.9-15.3-5-1 0-1.2 9.1-1 43.7zm13.2-23.5c2.8 4 1.6 13.8-1.8 15.1-3.8 1.5-4.6-.2-4.6-8.9 0-8.2 0-8.4 2.4-8.4 1.4 0 3.2 1 4 2.2zm1 33.1c4.7 4.7 4.1 18-.9 19.3-5.6 1.4-6 .8-6.3-10.9l-.3-10.7h2.6c1.4 0 3.6 1 4.9 2.3zM268.3 347.8l-9.3 1.5V437l2.3-.4c1.2-.3 5.6-1 9.7-1.6 11.9-1.7 11.1-1 10.8-10.3-.2-4.9-.7-8.1-1.3-8-.6.1-3.9.5-7.3.9l-6.2.7v-10.6c0-11.8-.5-11 8.1-12.2 6.9-1 7-1.2 6.7-9.6-.3-6.7-.5-7.4-2.3-7.2-1.1.2-4.4.5-7.2.9l-5.3.7v-15.1l5.3-.7c9.7-1.4 9.7-1.3 9.7-10.5 0-9.3 1.3-8.7-13.7-6.2zM233.3 350.5c-3.9 1.7-8.9 8.4-10.4 13.9-2.6 9.7 1 23.2 7.4 28 4.2 3.1 10.4 2.8 14.9-.6 5.7-4.4 8.2-10.7 8.3-20.8 0-7.2-.4-9.2-2.5-13-2.9-5.1-8.1-9-11.9-9-1.4.1-4 .7-5.8 1.5zm10.4 9.7c3.9 4.4 5.1 10.5 3.3 16.9-4 14.2-19.1 10.3-19-4.9 0-4.5 3.1-11.6 5.7-13.1 3.1-1.8 7.8-1.3 10 1.1zM194 371.9V394h8v-19h5c4 0 5.6-.5 8.1-2.8 5.8-5.2 4.8-16.2-1.9-19.6-1.5-.7-6.4-1.7-10.9-2l-8.3-.7v22zm15.8-11.3c1.5.4 1.6 4.6 0 6.2-.7.7-2.7 1.2-4.5 1.2-3.2 0-3.3-.1-3.3-4.5V359l3.3.6c1.7.3 3.8.7 4.5 1z"/></svg>